REM DIRINDEX 1\6,1\2\7,1\2\8,1\2\9,1\3\10,1\3\11,1\4\12,1\4\13,1\4\14,1\5\15,1\5\16,1\5\17
REM DIRNAME cjc040,folder01,folder02,folder03,folder04,folder05,folder06,folder07,folder08,folder09,folder10,folder11,folder12,folder13,folder14,folder15,folder16
TITLE ""
FILE "P2Q_t2_0126-0142.mp3" MP3
  TRACK 01 AUDIO
    TITLE "6:cjc040_4204"
    INDEX 01 00:00:00
  TRACK 02 AUDIO
    TITLE "0:"
    INDEX 01 00:05:71
  TRACK 03 AUDIO
    TITLE "7:cjc040_4205"
    INDEX 01 00:07:07
  TRACK 04 AUDIO
    TITLE "0:"
    INDEX 01 00:08:28
  TRACK 05 AUDIO
    TITLE "8:cjc040_4206"
    INDEX 01 00:09:12
  TRACK 06 AUDIO
    TITLE "0:"
    INDEX 01 00:12:60
  TRACK 07 AUDIO
    TITLE "9:cjc040_4207"
    INDEX 01 00:13:41
  TRACK 08 AUDIO
    TITLE "0:"
    INDEX 01 00:14:64
  TRACK 09 AUDIO
    TITLE "7:cjc040_4208"
    INDEX 01 00:16:49
  TRACK 10 AUDIO
    TITLE "0:"
    INDEX 01 00:17:57
  TRACK 11 AUDIO
    TITLE "8:cjc040_4209"
    INDEX 01 00:18:37
  TRACK 12 AUDIO
    TITLE "0:"
    INDEX 01 00:21:66
  TRACK 13 AUDIO
    TITLE "9:cjc040_4210"
    INDEX 01 00:22:46
  TRACK 14 AUDIO
    TITLE "0:"
    INDEX 01 00:23:57
  TRACK 15 AUDIO
    TITLE "7:cjc040_4211"
    INDEX 01 00:25:41
  TRACK 16 AUDIO
    TITLE "0:"
    INDEX 01 00:27:00
  TRACK 17 AUDIO
    TITLE "8:cjc040_4212"
    INDEX 01 00:27:59
  TRACK 18 AUDIO
    TITLE "0:"
    INDEX 01 00:28:72
  TRACK 19 AUDIO
    TITLE "9:cjc040_4213"
    INDEX 01 00:29:56
  TRACK 20 AUDIO
    TITLE "0:"
    INDEX 01 00:31:18
  TRACK 21 AUDIO
    TITLE "7:cjc040_4214"
    INDEX 01 00:33:09
  TRACK 22 AUDIO
    TITLE "0:"
    INDEX 01 00:34:42
  TRACK 23 AUDIO
    TITLE "8:cjc040_4215"
    INDEX 01 00:35:21
  TRACK 24 AUDIO
    TITLE "0:"
    INDEX 01 00:36:27
  TRACK 25 AUDIO
    TITLE "9:cjc040_4216"
    INDEX 01 00:37:10
  TRACK 26 AUDIO
    TITLE "0:"
    INDEX 01 00:38:47
  TRACK 27 AUDIO
    TITLE "7:cjc040_4217"
    INDEX 01 00:40:30
  TRACK 28 AUDIO
    TITLE "0:"
    INDEX 01 00:41:63
  TRACK 29 AUDIO
    TITLE "8:cjc040_4218"
    INDEX 01 00:42:43
  TRACK 30 AUDIO
    TITLE "0:"
    INDEX 01 00:43:54
  TRACK 31 AUDIO
    TITLE "9:cjc040_4219"
    INDEX 01 00:44:40
  TRACK 32 AUDIO
    TITLE "0:"
    INDEX 01 00:45:69
  TRACK 33 AUDIO
    TITLE "7:cjc040_4220"
    INDEX 01 00:47:52
  TRACK 34 AUDIO
    TITLE "0:"
    INDEX 01 00:48:71
  TRACK 35 AUDIO
    TITLE "8:cjc040_4221"
    INDEX 01 00:49:53
  TRACK 36 AUDIO
    TITLE "0:"
    INDEX 01 00:51:60
  TRACK 37 AUDIO
    TITLE "9:cjc040_4222"
    INDEX 01 00:52:41
  TRACK 38 AUDIO
    TITLE "0:"
    INDEX 01 00:53:62
  TRACK 39 AUDIO
    TITLE "7:cjc040_4223"
    INDEX 01 00:55:46
  TRACK 40 AUDIO
    TITLE "0:"
    INDEX 01 00:56:51
  TRACK 41 AUDIO
    TITLE "8:cjc040_4224"
    INDEX 01 00:57:37
  TRACK 42 AUDIO
    TITLE "0:"
    INDEX 01 00:58:48
  TRACK 43 AUDIO
    TITLE "9:cjc040_4225"
    INDEX 01 00:59:28
  TRACK 44 AUDIO
    TITLE "0:"
    INDEX 01 01:00:35
  TRACK 45 AUDIO
    TITLE "7:cjc040_4226"
    INDEX 01 01:02:18
  TRACK 46 AUDIO
    TITLE "0:"
    INDEX 01 01:03:26
  TRACK 47 AUDIO
    TITLE "8:cjc040_4227"
    INDEX 01 01:04:05
  TRACK 48 AUDIO
    TITLE "0:"
    INDEX 01 01:05:24
  TRACK 49 AUDIO
    TITLE "9:cjc040_4228"
    INDEX 01 01:06:04
  TRACK 50 AUDIO
    TITLE "0:"
    INDEX 01 01:07:12
  TRACK 51 AUDIO
    TITLE "7:cjc040_4229"
    INDEX 01 01:08:70
  TRACK 52 AUDIO
    TITLE "0:"
    INDEX 01 01:10:06
  TRACK 53 AUDIO
    TITLE "8:cjc040_4230"
    INDEX 01 01:10:67
  TRACK 54 AUDIO
    TITLE "0:"
    INDEX 01 01:11:72
  TRACK 55 AUDIO
    TITLE "9:cjc040_4231"
    INDEX 01 01:12:56
  TRACK 56 AUDIO
    TITLE "0:"
    INDEX 01 01:13:65
  TRACK 57 AUDIO
    TITLE "7:cjc040_4232"
    INDEX 01 01:15:60
  TRACK 58 AUDIO
    TITLE "0:"
    INDEX 01 01:17:02
  TRACK 59 AUDIO
    TITLE "8:cjc040_4233"
    INDEX 01 01:17:55
  TRACK 60 AUDIO
    TITLE "0:"
    INDEX 01 01:18:58
  TRACK 61 AUDIO
    TITLE "9:cjc040_4234"
    INDEX 01 01:19:38
  TRACK 62 AUDIO
    TITLE "0:"
    INDEX 01 01:20:61
  TRACK 63 AUDIO
    TITLE "7:cjc040_4235"
    INDEX 01 01:22:44
  TRACK 64 AUDIO
    TITLE "0:"
    INDEX 01 01:23:54
  TRACK 65 AUDIO
    TITLE "8:cjc040_4236"
    INDEX 01 01:24:36
  TRACK 66 AUDIO
    TITLE "0:"
    INDEX 01 01:25:47
  TRACK 67 AUDIO
    TITLE "9:cjc040_4237"
    INDEX 01 01:26:27
  TRACK 68 AUDIO
    TITLE "0:"
    INDEX 01 01:27:38
  TRACK 69 AUDIO
    TITLE "7:cjc040_4238"
    INDEX 01 01:29:21
  TRACK 70 AUDIO
    TITLE "0:"
    INDEX 01 01:30:48
  TRACK 71 AUDIO
    TITLE "8:cjc040_4239"
    INDEX 01 01:31:28
  TRACK 72 AUDIO
    TITLE "0:"
    INDEX 01 01:33:48
  TRACK 73 AUDIO
    TITLE "9:cjc040_4240"
    INDEX 01 01:34:30
  TRACK 74 AUDIO
    TITLE "0:"
    INDEX 01 01:35:63
  TRACK 75 AUDIO
    TITLE "7:cjc040_4241"
    INDEX 01 01:37:46
  TRACK 76 AUDIO
    TITLE "0:"
    INDEX 01 01:39:00
  TRACK 77 AUDIO
    TITLE "8:cjc040_4242"
    INDEX 01 01:39:57
  TRACK 78 AUDIO
    TITLE "0:"
    INDEX 01 01:42:18
  TRACK 79 AUDIO
    TITLE "9:cjc040_4243"
    INDEX 01 01:42:73
  TRACK 80 AUDIO
    TITLE "0:"
    INDEX 01 01:44:36
  TRACK 81 AUDIO
    TITLE "7:cjc040_4244"
    INDEX 01 01:46:16
  TRACK 82 AUDIO
    TITLE "0:"
    INDEX 01 01:47:40
  TRACK 83 AUDIO
    TITLE "8:cjc040_4245"
    INDEX 01 01:48:22
  TRACK 84 AUDIO
    TITLE "0:"
    INDEX 01 01:49:30
  TRACK 85 AUDIO
    TITLE "9:cjc040_4246"
    INDEX 01 01:50:11
  TRACK 86 AUDIO
    TITLE "0:"
    INDEX 01 01:51:38
  TRACK 87 AUDIO
    TITLE "7:cjc040_4247"
    INDEX 01 01:53:20
  TRACK 88 AUDIO
    TITLE "0:"
    INDEX 01 01:54:54
  TRACK 89 AUDIO
    TITLE "8:cjc040_4248"
    INDEX 01 01:55:32
  TRACK 90 AUDIO
    TITLE "0:"
    INDEX 01 01:56:53
  TRACK 91 AUDIO
    TITLE "9:cjc040_4249"
    INDEX 01 01:57:33
  TRACK 92 AUDIO
    TITLE "0:"
    INDEX 01 01:58:72
  TRACK 93 AUDIO
    TITLE "7:cjc040_4250"
    INDEX 01 02:00:55
  TRACK 94 AUDIO
    TITLE "0:"
    INDEX 01 02:02:09
  TRACK 95 AUDIO
    TITLE "8:cjc040_4251"
    INDEX 01 02:02:71
  TRACK 96 AUDIO
    TITLE "0:"
    INDEX 01 02:05:17
  TRACK 97 AUDIO
    TITLE "9:cjc040_4252"
    INDEX 01 02:05:74
  TRACK 98 AUDIO
    TITLE "0:"
    INDEX 01 02:07:33
  TRACK 99 AUDIO
    TITLE "7:cjc040_4253"
    INDEX 01 02:09:13
  TRACK 100 AUDIO
    TITLE "0:"
    INDEX 01 02:10:24
  TRACK 101 AUDIO
    TITLE "8:cjc040_4254"
    INDEX 01 02:11:08
  TRACK 102 AUDIO
    TITLE "0:"
    INDEX 01 02:13:22
  TRACK 103 AUDIO
    TITLE "9:cjc040_4255"
    INDEX 01 02:13:73
  TRACK 104 AUDIO
    TITLE "0:"
    INDEX 01 02:15:15
